{"title":"Allegiance S01E08 WEB-DL XviD-FUM","uid":11779698,"size":368400597,"categoryP":"video","categoryS":"tv_shows","magnet":"?xt=urn:btih:ae2663a8de943ae5191f3084452cbcaf796470f3&amp;dn=Allegiance+S01E08+WEB-DL+XviD-FUM&amp;tr=udp%3A%2F%2Ftracker.openbittorrent.com%3A80&amp;tr=udp%3A%2F%2Fopen.demonii.com%3A1337&amp;tr=udp%3A%2F%2Ftracker.coppersurfer.tk%3A6969&amp;tr=udp%3A%2F%2Fexodus.desync.com%3A6969","seeders":1,"leechers":0,"uploader":"sceneline","files":4,"time":1427522936,"description":" &lt;a href=&quot;https://www.scenetime,com&quot; rel=&quot;nofollow&quot; target=&quot;_NEW&quot;&gt;https://www.scenetime,com&lt;/a&gt;\nbefore opening the link repleace ,com to .com \n\nSign up is OPEN - for time being. Come and have fun.\n &lt;a href=&quot;\nhttps://www.scenebyte.com&quot; rel=&quot;nofollow&quot; target=&quot;_NEW&quot;&gt;\nhttps://www.scenebyte.com&lt;/a&gt;\nplease seed back as long as possible.\n\nfor info read NFO file\n\n================== NFO====================General\nComplete name                            : Allegiance.S01E08.The.Arrival.WEB-DL.XviD-FUM.avi\nFormat                                   : AVI\nFormat/Info                              : Audio Video Interleave\nFile size                                : 348 MiB\nDuration                                 : 42mn 19s\nOverall bit rate                         : 1 151 Kbps\nWriting library                          : VirtualDub build 35491/release\n\nVideo\nID                                       : 0\nFormat                                   : MPEG-4 Visual\nFormat profile                           : Advanced Simple@L5\nFormat settings, BVOP                    : 2\nFormat settings, QPel                    : No\nFormat settings, GMC                     : No warppoints\nFormat settings, Matrix                  : Default (H.263)\nMuxing mode                              : Packed bitstream\nCodec ID                                 : XVID\nCodec ID/Hint                            : XviD\nDuration                                 : 42mn 19s\nBit rate                                 : 1 014 Kbps\nWidth                                    : 624 pixels\nHeight                                   : 352 pixels\nDisplay aspect ratio                     : 16:9\nFrame rate                               : 23.976 fps\nColor space                              : YUV\nChroma subsampling                       : 4:2:0\nBit depth                                : 8 bits\nScan type                                : Progressive\nCompression mode                         : Lossy\nBits/(Pixel*Frame)                       : 0.192\nStream size                              : 307 MiB (88%)\nWriting library                          : XviD 65\n\nAudio\nID                                       : 1\nFormat                                   : MPEG Audio\nFormat version                           : Version 1\nFormat profile                           : Layer 3\nMode                                     : Joint stereo\nMode extension                           : MS Stereo\nCodec ID                                 : 55\nCodec ID/Hint                            : MP3\nDuration                                 : 42mn 19s\nBit rate mode                            : Constant\nBit rate                                 : 128 Kbps\nChannel(s)                               : 2 channels\nSampling rate                            : 48.0 KHz\nCompression mode                         : Lossy\nStream size                              : 38.7 MiB (11%)\nAlignment                                : Split accross interleaves\nInterleave, duration                     : 42 ms (1.00 video frame)\nInterleave, preload duration             : 500 ms","torrent":{"xt":"urn:btih:ae2663a8de943ae5191f3084452cbcaf796470f3","amp;dn":"Allegiance+S01E08+WEB-DL+XviD-FUM","amp;tr":["udp%3A%2F%2Ftracker.openbittorrent.com%3A80","udp%3A%2F%2Fopen.demonii.com%3A1337","udp%3A%2F%2Ftracker.coppersurfer.tk%3A6969","udp%3A%2F%2Fexodus.desync.com%3A6969"],"infoHash":"ae2663a8de943ae5191f3084452cbcaf796470f3","infoHashBuffer":{"type":"Buffer","data":[174,38,99,168,222,148,58,229,25,31,48,132,69,44,188,175,121,100,112,243]},"announce":[],"urlList":[]}}